<?xml version="1.0" encoding="utf-8"?>
<!-- Generator: Adobe Illustrator 24.2.3, SVG Export Plug-In . SVG Version: 6.00 Build 0)  -->
<svg version="1.1" id="Capa_1" xmlns="http://www.w3.org/2000/svg" xmlns:xlink="http://www.w3.org/1999/xlink" x="0px" y="0px"
	 viewBox="0 0 232 232.9" style="enable-background:new 0 0 232 232.9;" xml:space="preserve">
<style type="text/css">
	.st0{fill:#FFFFFF;stroke:#000000;}
</style>
<g>
	<path class="st0" d="M121,225c-5.7,0-11.3,0-17,0c-0.9-0.3-1.9-0.7-2.8-0.8c-47.3-6.5-78.9-32.5-95.2-77.1c-3-8.3-4-17.4-5.9-26.1
		c0-5.7,0-11.3,0-17c0.3-1.1,0.7-2.2,0.8-3.4C7.4,54,33.2,22.7,76.9,6.2C85.5,3,95,2,104,0c5.7,0,11.3,0,17,0
		c0.9,0.3,1.9,0.7,2.8,0.8c47.2,6.6,79.1,32.4,95.3,77.1c3,8.3,4,17.4,5.9,26.1c0,5.7,0,11.3,0,17c-0.4,2.4-0.7,4.9-1.2,7.3
		c-8.8,46.2-35.4,77-80.1,91.8C136.4,222.5,128.6,223.4,121,225z M205.5,109.2c-2.3-55.3-51.5-95-103.1-89.2
		c-50.2,5.7-85.3,49-82.9,96.7c2.7,52.6,46.8,91.1,96.9,88.7C169.2,203,207.1,158,205.5,109.2z"/>
	<path class="st0" d="M168.9,124.9c-24.6,0-49,0-73.4,0c-0.3,0.4-0.5,0.9-0.8,1.3c11.5,10.5,22.9,21.1,34.4,31.6
		c-0.5,0.8-1,1.6-1.5,2.3c-7,0-14.1-0.5-21.1,0.1c-7.5,0.7-12.6-1.8-17.6-7.4c-12.2-13.6-25.2-26.6-38.2-40.2
		c2.2-2.3,4.2-4.5,6.2-6.6c12.2-12.8,24.4-25.6,36.7-38.2c1.5-1.5,4.2-2.7,6.4-2.7c9.1-0.3,18.2-0.1,28.7-0.1
		c-11.7,12-22.6,23.2-34.4,35.3c25.5,0,50,0,74.7,0C168.9,108.8,168.9,116.6,168.9,124.9z"/>
</g>
</svg>
