<?xml version="1.0" encoding="utf-8"?>
<!-- Generator: Adobe Illustrator 24.2.3, SVG Export Plug-In . SVG Version: 6.00 Build 0)  -->
<svg version="1.1" id="Capa_1" xmlns="http://www.w3.org/2000/svg" xmlns:xlink="http://www.w3.org/1999/xlink" x="0px" y="0px"
	 viewBox="0 0 50 50" style="enable-background:new 0 0 50 50;" xml:space="preserve">
<path d="M21.7,21.9C27.6,16,33.5,10.1,39.4,4.2c2.3-2.3,5-2.6,7-0.6s1.7,4.7-0.6,7C34,22.4,22.2,34.2,10.3,46.1
	C8.2,48.2,5.9,48.5,4,47s-2.4-4-1.2-6.2C3,40.3,3.6,39.7,4,39.3C9.9,33.8,15.8,27.9,21.7,21.9z"/>
<path d="M21.9,28.3C16,22.4,10.1,16.5,4.2,10.6c-2.3-2.3-2.6-5-0.6-7s4.7-1.7,7,0.6C22.4,16,34.2,27.8,46.1,39.7
	c2.1,2.1,2.4,4.4,0.9,6.3c-1.5,1.9-4,2.4-6.2,1.2c-0.5-0.2-1.1-0.8-1.5-1.2C33.8,40.1,27.9,34.2,21.9,28.3z"/>
</svg>
