<?xml version="1.0" encoding="utf-8"?>
<!-- Generator: Adobe Illustrator 24.2.3, SVG Export Plug-In . SVG Version: 6.00 Build 0)  -->
<svg version="1.1" id="Capa_1" xmlns="http://www.w3.org/2000/svg" xmlns:xlink="http://www.w3.org/1999/xlink" x="0px" y="0px"
	 viewBox="0 0 99 100" style="enable-background:new 0 0 99 100;" xml:space="preserve">
<style type="text/css">
	.st0{fill:#FFFFFF;}
</style>
<path class="st0" d="M0.2,49.9c0-9.4,0-18.9,0-28.3C0.2,10.1,8.6,1.2,20,0.3c2.6-0.2,5.2-0.3,7.7-0.2C45,0.3,62.3-0.4,79.6,0.4
	c10.5,0.5,19.3,9.7,19.4,20.3c0.1,19.5,0.1,38.9,0,58.4c0,10.9-9.3,20.4-20.2,20.5c-19.5,0.2-38.9,0.2-58.4,0
	c-11-0.1-20.1-9.7-20.2-20.8C0.1,69.2,0.2,59.6,0.2,49.9z M49.6,9.3c-9.3,0-18.6,0-27.8,0c-7.4,0-12.6,5-12.6,12.4
	C9.1,40.5,9,59.3,9.1,78.1c0,7.4,5,12.6,12.5,12.6c18.6,0.1,37.3,0.1,55.9,0c7.3-0.1,12.4-5.1,12.5-12.4c0.1-18.9,0.1-37.7,0-56.6
	c-0.1-7.7-5.2-12.5-13-12.5C67.8,9.3,58.7,9.3,49.6,9.3z"/>
<path class="st0" d="M49.5,75.9c-14.1,0-25.9-11.8-25.9-25.9c0-14.3,11.8-26,26.2-25.9c14.2,0,26,11.9,25.8,25.9
	C75.5,64.3,63.7,76,49.5,75.9z M32.7,50c0,9.4,7.3,16.8,16.8,16.9c9.3,0.1,16.9-7.5,16.9-17c0-9.4-7.4-16.8-16.8-16.9
	C40.2,33,32.7,40.5,32.7,50z"/>
<path class="st0" d="M70.9,23c0-3.5,2.7-6.2,6.2-6.2c3.5,0,6.3,2.7,6.3,6.1c0,3.3-2.9,6.3-6.2,6.3C73.9,29.4,70.9,26.4,70.9,23z"/>
</svg>
