<?xml version="1.0" encoding="utf-8"?>
<!-- Generator: Adobe Illustrator 24.2.3, SVG Export Plug-In . SVG Version: 6.00 Build 0)  -->
<svg version="1.1" id="Capa_1" xmlns="http://www.w3.org/2000/svg" xmlns:xlink="http://www.w3.org/1999/xlink" x="0px" y="0px"
	 viewBox="0 0 99 100" style="enable-background:new 0 0 99 100;" xml:space="preserve">
<style type="text/css">
	.st0{fill:#FFFFFF;stroke:#FFFFFF;stroke-miterlimit:10;}
</style>
<path class="st0" d="M36.1,75c0-7.5,0-15,0-22.5c0-1.8-0.5-2.5-2.3-2.3c-1.9,0.1-3.8,0-5.7,0c-1.3,0-1.9-0.4-1.9-1.8
	c0-5.6,0-11.2,0-16.8c0-1.3,0.6-1.8,1.9-1.8c1.9,0,3.8-0.1,5.7,0s2.3-0.6,2.3-2.4c0-3.7-0.3-7.3,0.3-11C38.2,6.5,45.1,0.3,55.1,0
	c5.2-0.2,10.5,0,15.7-0.1c1.5,0,2,0.7,2,2.1c0,4.5,0,9,0,13.5c0,1.6-0.7,2.1-2.3,2.1c-3.1-0.1-6.1,0-9.2,0c-2.6,0-3.8,0.9-4.1,3.5
	C56.9,23.5,57,26,57,28.4c0,1.3,1,1.2,1.9,1.2c3.9,0,7.8,0,11.6,0c2.2,0,2.4,0.3,2.2,2.5c-0.5,5.2-1,10.4-1.4,15.6
	c-0.1,1.5-0.6,2.2-2.2,2.1c-3.4-0.1-6.8,0.1-10.2-0.1c-1.8,0.4-2.4,1.1-2.4,3c0.1,14.4,0,28.7,0,43.1c0,0.7,0,1.4,0,2
	c0.1,1.6-0.5,2.3-2.3,2.3c-5.3-0.1-10.6-0.1-15.9,0c-1.8,0-2.3-0.7-2.3-2.4C36.1,90.1,36.1,82.6,36.1,75z"/>
</svg>
